<svg xmlns="http://www.w3.org/2000/svg" viewBox="0 -60 256 390" role="img" aria-label="Apple logo">
  <path fill="currentColor" d="M213.8 167.1c-.4-42.6 34.8-63.1 36.4-64.1-19.9-29.1-50.8-33.1-61.7-33.5-26.3-2.7-51.3 15.5-64.7 15.5-13.3 0-33.9-15.1-55.7-14.7-28.7.4-55.1 16.7-69.9 42.4-29.8 51.7-7.6 128.2 21.4 170.1 14.2 20.5 31.1 43.6 53.3 42.7 21.4-.8 29.5-13.8 55.4-13.8 25.9 0 33.2 13.8 55.9 13.4 23.1-.4 37.7-20.9 51.8-41.5 16.3-23.8 23-46.9 23.4-48.1-.5-.2-45-17.2-45.5-68.4ZM171.3 41.7c11.8-14.3 19.8-34.2 17.6-54-17 .7-37.6 11.3-49.8 25.6-10.9 12.6-20.5 32.9-17.9 52.3 19 .1 38.4-9.6 50.1-23.9Z"/>
</svg>
